<?xml version="1.0" standalone="no"?>
<!DOCTYPE svg PUBLIC "-//W3C//DTD SVG 20010904//EN"
 "http://www.w3.org/TR/2001/REC-SVG-20010904/DTD/svg10.dtd">
<svg version="1.0" xmlns="http://www.w3.org/2000/svg"
 width="1570.000000pt" height="320.000000pt" viewBox="0 0 1570.000000 320.000000"
 preserveAspectRatio="xMidYMid meet">

<g transform="translate(0.000000,320.000000) scale(0.100000,-0.100000)"
fill="#000000" stroke="none">
<path d="M1762 2423 l3 -348 26 -55 c36 -76 68 -112 137 -148 151 -80 357 -56
468 55 20 20 48 61 63 92 l26 56 3 348 4 347 -61 0 -61 0 0 -335 c0 -323 -1
-337 -22 -381 -40 -86 -130 -130 -249 -122 -123 9 -200 77 -219 193 -5 33 -10
192 -10 353 l0 292 -56 0 -55 0 3 -347z"/>
<path d="M5420 2598 l0 -173 -36 43 c-51 60 -85 76 -170 76 -179 1 -295 -135
-296 -350 -1 -156 49 -268 147 -329 41 -26 60 -30 130 -33 99 -5 131 8 192 76
l43 47 0 -57 0 -58 50 0 50 0 0 465 0 465 -55 0 -55 0 0 -172z m-85 -182 c57
-44 87 -118 88 -219 2 -186 -89 -293 -229 -272 -61 9 -104 42 -137 105 -72
142 -33 338 80 400 57 30 148 24 198 -14z"/>
<path d="M6953 2308 l-170 -463 55 -3 c36 -2 58 1 63 10 4 6 26 65 49 130 l42
118 191 -2 191 -3 44 -127 45 -128 59 0 c53 0 59 2 53 18 -4 9 -71 193 -150
407 -79 215 -153 416 -165 448 l-21 57 -58 0 -58 0 -170 -462z m306 110 c39
-112 71 -206 71 -210 0 -5 -68 -8 -151 -8 -117 0 -150 3 -147 13 3 6 36 101
74 209 38 109 72 198 75 198 3 0 38 -91 78 -202z"/>
<path d="M983 2563 l-213 -3 0 -60 0 -60 150 0 c83 0 150 -3 150 -8 0 -4 -67
-75 -150 -157 l-150 -150 0 -62 0 -63 57 0 57 0 151 150 150 151 3 -151 3
-151 67 3 67 3 0 280 0 280 -65 0 c-36 1 -161 -1 -277 -2z"/>
<path d="M2953 2541 c-44 -11 -76 -34 -110 -76 -15 -19 -31 -35 -35 -35 -5 0
-8 25 -8 55 l0 55 -50 0 -50 0 0 -480 0 -480 50 0 50 0 0 180 c0 99 4 180 8
180 5 0 23 -17 40 -39 47 -59 89 -74 188 -69 74 4 89 8 132 38 103 70 148 180
140 344 -4 79 -11 113 -30 157 -30 66 -85 125 -143 150 -49 22 -137 31 -182
20z m135 -110 c48 -24 66 -45 93 -106 28 -64 31 -187 6 -261 -41 -118 -156
-174 -262 -125 -82 37 -119 114 -119 246 0 50 5 107 13 128 16 48 66 106 106
123 44 19 120 17 163 -5z"/>
<path d="M3660 2537 c-30 -7 -69 -21 -86 -30 -35 -18 -104 -93 -104 -112 0 -7
21 -20 46 -30 l46 -18 25 32 c36 46 92 71 158 71 89 0 129 -31 149 -113 8 -32
-6 -63 -31 -71 -10 -3 -69 -13 -130 -21 -218 -30 -284 -77 -285 -200 -1 -69
16 -115 55 -153 47 -46 101 -65 182 -65 80 0 136 23 178 73 14 16 28 30 31 30
3 0 6 -20 6 -45 l0 -45 50 0 50 0 0 268 c0 294 -4 316 -66 374 -59 55 -173 78
-274 55z m238 -420 c-10 -123 -65 -184 -176 -194 -112 -10 -184 46 -168 131
12 62 44 77 236 110 122 22 113 25 108 -47z"/>
<path d="M4455 2541 c-51 -13 -91 -39 -123 -78 l-31 -38 -1 58 0 57 -50 0 -50
0 0 -350 0 -350 50 0 50 0 0 204 c0 289 14 342 103 387 50 26 134 23 175 -8
58 -42 62 -64 62 -335 l0 -248 56 0 55 0 -3 273 c-3 293 -5 303 -62 365 -47
52 -158 82 -231 63z"/>
<path d="M5970 2544 c-117 -22 -213 -115 -245 -239 -46 -180 15 -366 145 -439
52 -29 61 -31 165 -31 88 0 117 4 145 19 68 36 144 126 123 146 -4 5 -26 13
-48 19 -37 10 -41 9 -55 -11 -38 -58 -95 -88 -165 -88 -114 0 -215 97 -215
208 l0 22 251 0 251 0 -4 88 c-7 142 -62 234 -169 281 -47 21 -135 33 -179 25z
m133 -110 c64 -32 102 -87 108 -154 l4 -35 -199 -3 -199 -2 6 37 c10 58 56
123 106 150 53 28 127 31 174 7z"/>
<path d="M7956 2538 c-26 -7 -57 -28 -86 -59 -26 -27 -50 -49 -54 -49 -3 0 -6
25 -6 55 l0 55 -50 0 -50 0 0 -480 0 -480 55 0 55 0 2 187 3 187 27 -41 c41
-62 99 -86 197 -82 65 3 85 9 126 34 104 65 150 166 149 330 -1 117 -23 187
-80 254 -67 78 -191 116 -288 89z m137 -102 c84 -35 134 -145 124 -276 -8
-117 -47 -187 -121 -221 -96 -44 -196 -5 -249 96 -25 49 -35 183 -18 252 17
69 55 121 104 144 49 22 115 24 160 5z"/>
<path d="M8736 2538 c-26 -7 -57 -28 -86 -59 -26 -27 -50 -49 -54 -49 -3 0 -6
25 -6 55 l0 55 -50 0 -50 0 0 -480 0 -480 55 0 55 0 2 187 3 187 27 -41 c41
-62 99 -86 197 -82 65 3 85 9 126 34 104 65 150 166 149 330 -1 117 -23 187
-80 254 -67 78 -191 116 -288 89z m137 -102 c84 -35 133 -145 124 -276 -11
-164 -101 -255 -231 -236 -96 15 -157 101 -164 233 -5 95 8 162 44 216 44 67
149 96 227 63z"/>
</g>
</svg>
