<?xml version="1.0" standalone="no"?>
<!DOCTYPE svg PUBLIC "-//W3C//DTD SVG 20010904//EN"
 "http://www.w3.org/TR/2001/REC-SVG-20010904/DTD/svg10.dtd">
<svg version="1.0" xmlns="http://www.w3.org/2000/svg"
 width="1024.000000pt" height="212.000000pt" viewBox="0 0 1024.000000 212.000000"
 preserveAspectRatio="xMidYMid meet">

<g transform="translate(0.000000,212.000000) scale(0.100000,-0.100000)"
fill="#000000" stroke="none">
<path d="M983 1483 l-213 -3 0 -60 0 -60 150 0 c83 0 150 -3 150 -8 0 -4 -67
-75 -150 -157 l-150 -150 0 -62 0 -63 57 0 57 0 151 150 150 151 3 -151 3
-151 67 3 67 3 0 280 0 280 -65 0 c-36 1 -161 -1 -277 -2z"/>
<path d="M2420 1435 c-20 -25 -8 -50 25 -50 21 0 31 5 33 18 4 21 -14 47 -33
47 -7 0 -18 -7 -25 -15z"/>
<path d="M1610 1410 c0 -17 8 -19 73 -22 l72 -3 3 -207 2 -208 25 0 25 0 2
208 3 207 73 3 c64 3 72 5 72 22 0 19 -8 20 -175 20 -167 0 -175 -1 -175 -20z"/>
<path d="M2040 1200 l0 -230 24 0 c24 0 24 0 28 125 3 120 4 126 30 152 35 35
89 37 121 5 20 -21 22 -34 25 -152 4 -130 4 -130 28 -130 l24 0 0 130 c0 140
-9 174 -52 204 -37 26 -111 21 -147 -10 l-31 -26 0 81 c0 80 0 81 -25 81 l-25
0 0 -230z"/>
<path d="M3680 1200 l0 -230 25 0 c21 0 25 5 25 28 l0 27 18 -22 c35 -45 113
-53 169 -16 57 37 83 167 49 246 -35 85 -140 116 -205 61 l-31 -26 0 81 c0 80
0 81 -25 81 l-25 0 0 -230z m186 65 c101 -42 74 -255 -33 -255 -63 0 -103 52
-103 135 0 59 23 103 63 120 40 18 32 18 73 0z"/>
<path d="M5270 1348 l0 -82 -28 27 c-58 56 -165 26 -202 -56 -51 -112 3 -254
104 -273 38 -7 103 17 112 41 9 24 24 18 24 -10 0 -20 5 -25 25 -25 l25 0 0
230 0 230 -30 0 -30 0 0 -82z m-32 -102 c59 -58 42 -201 -26 -227 -75 -29
-136 26 -137 122 0 115 93 174 163 105z"/>
<path d="M5741 1408 c-5 -13 -29 -79 -54 -148 -25 -69 -59 -162 -76 -208 l-31
-83 32 3 c30 3 33 7 52 66 l20 62 96 0 96 0 23 -65 c21 -60 26 -65 52 -65 l29
0 -30 83 c-143 394 -134 372 -168 375 -26 3 -34 -1 -41 -20z m46 -256 c-38 -2
-72 -1 -75 2 -2 3 8 40 23 83 51 143 42 141 84 23 l38 -105 -70 -3z"/>
<path d="M7010 1273 c0 -87 5 -174 10 -193 37 -134 256 -159 330 -38 18 30 20
51 20 211 l0 177 -25 0 -25 0 0 -162 c0 -110 -4 -171 -13 -187 -41 -80 -175
-87 -220 -12 -14 24 -17 57 -17 195 l0 166 -30 0 -30 0 0 -157z"/>
<path d="M8840 1348 l0 -82 -28 27 c-58 56 -165 26 -202 -56 -49 -107 -4 -240
91 -268 44 -14 103 2 122 32 16 26 27 24 27 -6 0 -20 5 -25 25 -25 l25 0 0
230 0 230 -30 0 -30 0 0 -82z m-27 -109 c52 -56 34 -196 -29 -219 -69 -27
-127 12 -139 94 -20 131 88 212 168 125z"/>
<path d="M2420 1145 l0 -175 25 0 25 0 0 175 0 175 -25 0 -25 0 0 -175z"/>
<path d="M2570 1145 l0 -175 25 0 25 0 0 110 c0 135 13 173 63 189 29 10 41 9
65 -3 16 -8 32 -23 36 -31 3 -9 6 -73 6 -141 l0 -124 30 0 30 0 0 113 c-1 136
-11 185 -45 215 -38 33 -113 31 -154 -4 l-31 -26 0 26 c0 21 -5 26 -25 26
l-25 0 0 -175z"/>
<path d="M3000 1298 c-69 -48 -92 -157 -50 -243 25 -52 64 -75 128 -75 40 0
54 5 76 26 l26 27 0 -52 c0 -42 -5 -57 -25 -76 -34 -35 -102 -35 -143 0 -25
21 -32 23 -47 11 -64 -46 97 -107 189 -72 77 29 81 42 84 274 l4 202 -31 0
c-27 0 -31 -4 -31 -27 l0 -27 -28 27 c-37 35 -104 37 -152 5z m153 -59 c23
-25 27 -38 27 -85 0 -73 -20 -110 -68 -124 -70 -21 -120 19 -129 104 -10 83
50 154 117 140 14 -2 37 -18 53 -35z"/>
<path d="M3364 1286 c-61 -61 -37 -133 53 -155 85 -22 113 -38 113 -65 0 -62
-135 -78 -154 -18 -5 14 -13 18 -31 14 -30 -5 -32 -21 -4 -55 58 -74 222 -47
243 40 15 58 -25 99 -119 122 -52 13 -85 35 -85 57 0 19 49 54 76 54 12 0 36
-12 53 -26 40 -34 76 -26 59 12 -16 35 -58 54 -119 54 -45 0 -55 -4 -85 -34z"/>
<path d="M4135 1305 c-99 -49 -113 -234 -24 -309 70 -59 189 -35 230 47 44 86
20 208 -50 254 -40 27 -110 30 -156 8z m110 -39 c48 -20 68 -65 63 -139 -4
-53 -9 -64 -38 -90 -28 -25 -38 -29 -74 -24 -29 4 -48 14 -63 33 -56 70 -29
199 47 227 23 8 28 8 65 -7z"/>
<path d="M4493 1300 c-17 -10 -37 -28 -43 -39 -9 -18 -7 -21 15 -27 20 -5 33
0 51 17 35 33 99 33 125 0 22 -27 25 -60 7 -66 -7 -2 -47 -9 -88 -16 -85 -13
-130 -46 -130 -96 0 -96 124 -145 204 -82 l26 20 0 -20 c0 -16 6 -21 25 -21
l25 0 0 141 0 141 -34 34 c-31 31 -39 34 -92 34 -41 0 -69 -6 -91 -20z m164
-202 c-4 -29 -14 -50 -32 -65 -43 -38 -130 -27 -135 17 -7 52 8 65 92 79 86
14 81 16 75 -31z"/>
<path d="M4810 1145 l0 -175 25 0 25 0 0 115 c0 154 15 185 91 185 24 0 29 4
29 25 0 22 -4 25 -35 25 -25 0 -44 -8 -60 -25 l-25 -24 0 24 c0 20 -5 25 -25
25 l-25 0 0 -175z"/>
<path d="M6050 1080 l0 -240 25 0 c25 0 25 1 25 93 0 89 1 91 18 70 35 -45
113 -53 169 -16 57 37 83 167 49 246 -35 85 -140 116 -205 61 l-31 -26 0 26
c0 21 -5 26 -25 26 l-25 0 0 -240z m186 185 c101 -42 74 -255 -33 -255 -63 0
-103 52 -103 135 0 59 23 103 63 120 40 18 32 18 73 0z"/>
<path d="M6440 1080 l0 -240 25 0 c25 0 25 1 25 93 0 89 1 91 18 70 35 -45
113 -53 169 -16 57 37 83 167 49 246 -35 85 -140 116 -205 61 l-31 -26 0 26
c0 21 -5 26 -25 26 l-25 0 0 -240z m186 185 c101 -42 74 -255 -33 -255 -63 0
-103 52 -103 135 0 59 23 103 63 120 40 18 32 18 73 0z"/>
<path d="M7480 1080 l0 -240 25 0 c25 0 25 1 25 92 l0 92 31 -30 c25 -24 39
-29 79 -29 90 0 145 66 145 175 0 117 -52 180 -148 180 -38 0 -53 -5 -73 -25
-14 -14 -27 -25 -29 -25 -3 0 -5 11 -5 25 0 20 -5 25 -25 25 l-25 0 0 -240z
m218 166 c56 -55 45 -189 -19 -221 -68 -36 -132 4 -144 89 -19 126 84 209 163
132z"/>
<path d="M7922 1303 c-35 -17 -57 -47 -47 -63 10 -16 32 -12 71 15 45 31 73
32 108 4 20 -15 26 -29 24 -48 -3 -24 -9 -27 -68 -37 -130 -23 -153 -37 -153
-102 0 -51 18 -81 58 -98 50 -20 87 -17 129 11 34 23 36 23 36 5 0 -15 7 -20
25 -20 l25 0 0 135 c0 147 -8 178 -51 201 -37 19 -116 17 -157 -3z m158 -199
c0 -48 -45 -94 -92 -94 -66 0 -102 55 -60 93 15 14 80 30 140 36 7 1 12 -12
12 -35z"/>
<path d="M8230 1145 l0 -175 24 0 c24 0 24 0 28 125 3 120 4 126 30 152 36 36
92 37 119 4 16 -20 19 -41 19 -152 l0 -129 30 0 30 0 0 118 c0 136 -11 183
-47 212 -39 30 -112 28 -152 -6 l-31 -26 0 26 c0 21 -5 26 -25 26 l-25 0 0
-175z"/>
<path d="M9063 1300 c-51 -31 -76 -90 -71 -171 6 -109 59 -164 158 -164 62 0
98 18 127 62 14 21 13 23 -12 29 -20 5 -30 2 -36 -8 -13 -24 -65 -41 -102 -34
-41 8 -75 41 -83 84 l-6 32 126 0 126 0 0 40 c0 50 -19 89 -60 124 -40 33
-118 36 -167 6z m150 -61 c15 -16 27 -38 27 -49 0 -19 -7 -20 -100 -20 -63 0
-100 4 -100 10 0 27 34 73 63 86 42 18 76 10 110 -27z"/>
</g>
</svg>
