<svg width="792" height="212" viewBox="0 0 792 212" fill="none" xmlns="http://www.w3.org/2000/svg">
<rect width="792" height="212" fill="white"/>
<path d="M94.3182 69.8409V66.0909H120.5V69.8409H109.523V101H105.295V69.8409H94.3182ZM130.501 85.25V101H126.479V66.0909H130.501V78.9091H130.842C131.456 77.5568 132.376 76.483 133.604 75.6875C134.842 74.8807 136.49 74.4773 138.547 74.4773C140.331 74.4773 141.893 74.8352 143.234 75.5511C144.575 76.2557 145.615 77.3409 146.354 78.8068C147.104 80.2614 147.479 82.1136 147.479 84.3636V101H143.456V84.6364C143.456 82.5568 142.916 80.9489 141.837 79.8125C140.768 78.6648 139.286 78.0909 137.388 78.0909C136.07 78.0909 134.888 78.3693 133.842 78.9261C132.808 79.483 131.99 80.2955 131.388 81.3636C130.797 82.4318 130.501 83.7273 130.501 85.25ZM154.838 101V74.8182H158.861V101H154.838ZM156.884 70.4545C156.099 70.4545 155.423 70.1875 154.855 69.6534C154.298 69.1193 154.02 68.4773 154.02 67.7273C154.02 66.9773 154.298 66.3352 154.855 65.8011C155.423 65.267 156.099 65 156.884 65C157.668 65 158.338 65.267 158.895 65.8011C159.463 66.3352 159.747 66.9773 159.747 67.7273C159.747 68.4773 159.463 69.1193 158.895 69.6534C158.338 70.1875 157.668 70.4545 156.884 70.4545ZM170.251 85.25V101H166.229V74.8182H170.115V78.9091H170.456C171.07 77.5795 172.001 76.5114 173.251 75.7045C174.501 74.8864 176.115 74.4773 178.092 74.4773C179.865 74.4773 181.416 74.8409 182.746 75.5682C184.075 76.2841 185.109 77.375 185.848 78.8409C186.587 80.2955 186.956 82.1364 186.956 84.3636V101H182.933V84.6364C182.933 82.5795 182.399 80.9773 181.331 79.8295C180.263 78.6705 178.797 78.0909 176.933 78.0909C175.649 78.0909 174.501 78.3693 173.49 78.9261C172.49 79.483 171.7 80.2955 171.121 81.3636C170.541 82.4318 170.251 83.7273 170.251 85.25ZM204.875 111.364C202.932 111.364 201.261 111.114 199.864 110.614C198.466 110.125 197.301 109.477 196.369 108.67C195.449 107.875 194.716 107.023 194.17 106.114L197.375 103.864C197.739 104.341 198.199 104.886 198.756 105.5C199.313 106.125 200.074 106.665 201.04 107.119C202.017 107.585 203.295 107.818 204.875 107.818C206.989 107.818 208.733 107.307 210.108 106.284C211.483 105.261 212.17 103.659 212.17 101.477V96.1591H211.83C211.534 96.6364 211.114 97.2273 210.568 97.9318C210.034 98.625 209.261 99.2443 208.25 99.7898C207.25 100.324 205.898 100.591 204.193 100.591C202.08 100.591 200.182 100.091 198.5 99.0909C196.83 98.0909 195.506 96.6364 194.528 94.7273C193.563 92.8182 193.08 90.5 193.08 87.7727C193.08 85.0909 193.551 82.7557 194.494 80.767C195.438 78.767 196.75 77.2216 198.432 76.1307C200.114 75.0284 202.057 74.4773 204.261 74.4773C205.966 74.4773 207.318 74.7614 208.318 75.3295C209.33 75.8864 210.102 76.5227 210.636 77.2386C211.182 77.9432 211.602 78.5227 211.898 78.9773H212.307V74.8182H216.193V101.75C216.193 104 215.682 105.83 214.659 107.239C213.648 108.659 212.284 109.699 210.568 110.358C208.864 111.028 206.966 111.364 204.875 111.364ZM204.739 96.9773C206.352 96.9773 207.716 96.608 208.83 95.8693C209.943 95.1307 210.79 94.0682 211.369 92.6818C211.949 91.2955 212.239 89.6364 212.239 87.7045C212.239 85.8182 211.955 84.1534 211.386 82.7102C210.818 81.267 209.977 80.1364 208.864 79.3182C207.75 78.5 206.375 78.0909 204.739 78.0909C203.034 78.0909 201.614 78.5227 200.477 79.3864C199.352 80.25 198.506 81.4091 197.938 82.8636C197.381 84.3182 197.102 85.9318 197.102 87.7045C197.102 89.5227 197.386 91.1307 197.955 92.5284C198.534 93.9148 199.386 95.0057 200.511 95.8011C201.648 96.5852 203.057 96.9773 204.739 96.9773ZM242.102 80.6818L238.489 81.7045C238.261 81.1023 237.926 80.517 237.483 79.9489C237.051 79.3693 236.46 78.892 235.71 78.517C234.96 78.142 234 77.9545 232.83 77.9545C231.227 77.9545 229.892 78.3239 228.824 79.0625C227.767 79.7898 227.239 80.7159 227.239 81.8409C227.239 82.8409 227.602 83.6307 228.33 84.2102C229.057 84.7898 230.193 85.2727 231.739 85.6591L235.625 86.6136C237.966 87.1818 239.71 88.0511 240.858 89.2216C242.006 90.3807 242.58 91.875 242.58 93.7045C242.58 95.2045 242.148 96.5455 241.284 97.7273C240.432 98.9091 239.239 99.8409 237.705 100.523C236.17 101.205 234.386 101.545 232.352 101.545C229.682 101.545 227.472 100.966 225.722 99.8068C223.972 98.6477 222.864 96.9545 222.398 94.7273L226.216 93.7727C226.58 95.1818 227.267 96.2386 228.278 96.9432C229.301 97.6477 230.636 98 232.284 98C234.159 98 235.648 97.6023 236.75 96.8068C237.864 96 238.42 95.0341 238.42 93.9091C238.42 93 238.102 92.2386 237.466 91.625C236.83 91 235.852 90.5341 234.534 90.2273L230.17 89.2045C227.773 88.6364 226.011 87.7557 224.886 86.5625C223.773 85.358 223.216 83.8523 223.216 82.0455C223.216 80.5682 223.631 79.2614 224.46 78.125C225.301 76.9886 226.443 76.0966 227.886 75.4489C229.341 74.8011 230.989 74.4773 232.83 74.4773C235.42 74.4773 237.455 75.0455 238.932 76.1818C240.42 77.3182 241.477 78.8182 242.102 80.6818ZM249.18 101V66.0909H253.203V78.9773H253.544C253.839 78.5227 254.249 77.9432 254.771 77.2386C255.305 76.5227 256.067 75.8864 257.055 75.3295C258.055 74.7614 259.408 74.4773 261.112 74.4773C263.317 74.4773 265.26 75.0284 266.942 76.1307C268.624 77.233 269.936 78.7955 270.879 80.8182C271.822 82.8409 272.294 85.2273 272.294 87.9773C272.294 90.75 271.822 93.1534 270.879 95.1875C269.936 97.2102 268.629 98.7784 266.959 99.892C265.288 100.994 263.362 101.545 261.18 101.545C259.499 101.545 258.152 101.267 257.141 100.71C256.129 100.142 255.351 99.5 254.805 98.7841C254.26 98.0568 253.839 97.4545 253.544 96.9773H253.067V101H249.18ZM253.135 87.9091C253.135 89.8864 253.425 91.6307 254.004 93.142C254.584 94.642 255.43 95.8182 256.544 96.6705C257.658 97.5114 259.021 97.9318 260.635 97.9318C262.317 97.9318 263.72 97.4886 264.845 96.6023C265.982 95.7045 266.834 94.5 267.402 92.9886C267.982 91.4659 268.271 89.7727 268.271 87.9091C268.271 86.0682 267.987 84.4091 267.419 82.9318C266.862 81.4432 266.016 80.267 264.879 79.4034C263.754 78.5284 262.339 78.0909 260.635 78.0909C258.999 78.0909 257.624 78.5057 256.51 79.3352C255.396 80.1534 254.555 81.3011 253.987 82.7784C253.419 84.2443 253.135 85.9545 253.135 87.9091ZM289.084 101.545C286.72 101.545 284.646 100.983 282.862 99.858C281.089 98.733 279.703 97.1591 278.703 95.1364C277.714 93.1136 277.22 90.75 277.22 88.0455C277.22 85.3182 277.714 82.9375 278.703 80.9034C279.703 78.8693 281.089 77.2898 282.862 76.1648C284.646 75.0398 286.72 74.4773 289.084 74.4773C291.447 74.4773 293.516 75.0398 295.288 76.1648C297.072 77.2898 298.459 78.8693 299.447 80.9034C300.447 82.9375 300.947 85.3182 300.947 88.0455C300.947 90.75 300.447 93.1136 299.447 95.1364C298.459 97.1591 297.072 98.733 295.288 99.858C293.516 100.983 291.447 101.545 289.084 101.545ZM289.084 97.9318C290.879 97.9318 292.357 97.4716 293.516 96.5511C294.675 95.6307 295.533 94.4205 296.089 92.9205C296.646 91.4205 296.925 89.7955 296.925 88.0455C296.925 86.2955 296.646 84.6648 296.089 83.1534C295.533 81.642 294.675 80.4205 293.516 79.4886C292.357 78.5568 290.879 78.0909 289.084 78.0909C287.288 78.0909 285.811 78.5568 284.652 79.4886C283.493 80.4205 282.635 81.642 282.078 83.1534C281.521 84.6648 281.243 86.2955 281.243 88.0455C281.243 89.7955 281.521 91.4205 282.078 92.9205C282.635 94.4205 283.493 95.6307 284.652 96.5511C285.811 97.4716 287.288 97.9318 289.084 97.9318ZM314.793 101.614C313.134 101.614 311.628 101.301 310.276 100.676C308.923 100.04 307.849 99.125 307.054 97.9318C306.259 96.7273 305.861 95.2727 305.861 93.5682C305.861 92.0682 306.156 90.8523 306.747 89.9205C307.338 88.9773 308.128 88.2386 309.116 87.7045C310.105 87.1705 311.196 86.7727 312.389 86.5114C313.594 86.2386 314.804 86.0227 316.02 85.8636C317.611 85.6591 318.901 85.5057 319.889 85.4034C320.889 85.2898 321.616 85.1023 322.071 84.8409C322.537 84.5795 322.77 84.125 322.77 83.4773V83.3409C322.77 81.6591 322.31 80.3523 321.389 79.4205C320.48 78.4886 319.099 78.0227 317.247 78.0227C315.327 78.0227 313.821 78.4432 312.73 79.2841C311.639 80.125 310.872 81.0227 310.429 81.9773L306.611 80.6136C307.293 79.0227 308.202 77.7841 309.338 76.8977C310.486 76 311.736 75.375 313.088 75.0227C314.452 74.6591 315.793 74.4773 317.111 74.4773C317.952 74.4773 318.918 74.5795 320.009 74.7841C321.111 74.9773 322.173 75.3807 323.196 75.9943C324.23 76.608 325.088 77.5341 325.77 78.7727C326.452 80.0114 326.793 81.6705 326.793 83.75V101H322.77V97.4545H322.565C322.293 98.0227 321.838 98.6307 321.202 99.2784C320.565 99.9261 319.719 100.477 318.662 100.932C317.605 101.386 316.315 101.614 314.793 101.614ZM315.406 98C316.997 98 318.338 97.6875 319.429 97.0625C320.531 96.4375 321.361 95.6307 321.918 94.642C322.486 93.6534 322.77 92.6136 322.77 91.5227V87.8409C322.599 88.0455 322.224 88.233 321.645 88.4034C321.077 88.5625 320.418 88.7045 319.668 88.8295C318.929 88.9432 318.207 89.0455 317.503 89.1364C316.81 89.2159 316.247 89.2841 315.815 89.3409C314.77 89.4773 313.793 89.6989 312.884 90.0057C311.986 90.3011 311.259 90.75 310.702 91.3523C310.156 91.9432 309.884 92.75 309.884 93.7727C309.884 95.1705 310.401 96.2273 311.435 96.9432C312.48 97.6477 313.804 98 315.406 98ZM334.135 101V74.8182H338.021V78.7727H338.294C338.771 77.4773 339.635 76.4261 340.885 75.6193C342.135 74.8125 343.544 74.4091 345.112 74.4091C345.408 74.4091 345.777 74.4148 346.22 74.4261C346.663 74.4375 346.999 74.4545 347.226 74.4773V78.5682C347.089 78.5341 346.777 78.483 346.288 78.4148C345.811 78.3352 345.305 78.2955 344.771 78.2955C343.499 78.2955 342.362 78.5625 341.362 79.0966C340.374 79.6193 339.589 80.3466 339.01 81.2784C338.442 82.1989 338.158 83.25 338.158 84.4318V101H334.135ZM361.084 101.545C358.902 101.545 356.976 100.994 355.305 99.892C353.635 98.7784 352.328 97.2102 351.385 95.1875C350.442 93.1534 349.97 90.75 349.97 87.9773C349.97 85.2273 350.442 82.8409 351.385 80.8182C352.328 78.7955 353.641 77.233 355.322 76.1307C357.004 75.0284 358.947 74.4773 361.152 74.4773C362.857 74.4773 364.203 74.7614 365.192 75.3295C366.192 75.8864 366.953 76.5227 367.476 77.2386C368.01 77.9432 368.425 78.5227 368.72 78.9773H369.061V66.0909H373.084V101H369.197V96.9773H368.72C368.425 97.4545 368.004 98.0568 367.459 98.7841C366.913 99.5 366.135 100.142 365.124 100.71C364.112 101.267 362.766 101.545 361.084 101.545ZM361.629 97.9318C363.243 97.9318 364.607 97.5114 365.72 96.6705C366.834 95.8182 367.68 94.642 368.26 93.142C368.839 91.6307 369.129 89.8864 369.129 87.9091C369.129 85.9545 368.845 84.2443 368.277 82.7784C367.709 81.3011 366.868 80.1534 365.754 79.3352C364.641 78.5057 363.266 78.0909 361.629 78.0909C359.925 78.0909 358.504 78.5284 357.368 79.4034C356.243 80.267 355.396 81.4432 354.828 82.9318C354.271 84.4091 353.993 86.0682 353.993 87.9091C353.993 89.7727 354.277 91.4659 354.845 92.9886C355.425 94.5 356.277 95.7045 357.402 96.6023C358.538 97.4886 359.947 97.9318 361.629 97.9318ZM396.487 101H392.055L404.874 66.0909H409.237L422.055 101H417.624L407.192 71.6136H406.919L396.487 101ZM398.124 87.3636H415.987V91.1136H398.124V87.3636ZM426.947 110.818V74.8182H430.834V78.9773H431.311C431.607 78.5227 432.016 77.9432 432.538 77.2386C433.072 76.5227 433.834 75.8864 434.822 75.3295C435.822 74.7614 437.175 74.4773 438.879 74.4773C441.084 74.4773 443.027 75.0284 444.709 76.1307C446.391 77.233 447.703 78.7955 448.646 80.8182C449.589 82.8409 450.061 85.2273 450.061 87.9773C450.061 90.75 449.589 93.1534 448.646 95.1875C447.703 97.2102 446.396 98.7784 444.726 99.892C443.055 100.994 441.129 101.545 438.947 101.545C437.266 101.545 435.919 101.267 434.908 100.71C433.896 100.142 433.118 99.5 432.572 98.7841C432.027 98.0568 431.607 97.4545 431.311 96.9773H430.97V110.818H426.947ZM430.902 87.9091C430.902 89.8864 431.192 91.6307 431.771 93.142C432.351 94.642 433.197 95.8182 434.311 96.6705C435.425 97.5114 436.788 97.9318 438.402 97.9318C440.084 97.9318 441.487 97.4886 442.612 96.6023C443.749 95.7045 444.601 94.5 445.169 92.9886C445.749 91.4659 446.038 89.7727 446.038 87.9091C446.038 86.0682 445.754 84.4091 445.186 82.9318C444.629 81.4432 443.783 80.267 442.646 79.4034C441.521 78.5284 440.107 78.0909 438.402 78.0909C436.766 78.0909 435.391 78.5057 434.277 79.3352C433.163 80.1534 432.322 81.3011 431.754 82.7784C431.186 84.2443 430.902 85.9545 430.902 87.9091ZM456.197 110.818V74.8182H460.084V78.9773H460.561C460.857 78.5227 461.266 77.9432 461.788 77.2386C462.322 76.5227 463.084 75.8864 464.072 75.3295C465.072 74.7614 466.425 74.4773 468.129 74.4773C470.334 74.4773 472.277 75.0284 473.959 76.1307C475.641 77.233 476.953 78.7955 477.896 80.8182C478.839 82.8409 479.311 85.2273 479.311 87.9773C479.311 90.75 478.839 93.1534 477.896 95.1875C476.953 97.2102 475.646 98.7784 473.976 99.892C472.305 100.994 470.379 101.545 468.197 101.545C466.516 101.545 465.169 101.267 464.158 100.71C463.146 100.142 462.368 99.5 461.822 98.7841C461.277 98.0568 460.857 97.4545 460.561 96.9773H460.22V110.818H456.197ZM460.152 87.9091C460.152 89.8864 460.442 91.6307 461.021 93.142C461.601 94.642 462.447 95.8182 463.561 96.6705C464.675 97.5114 466.038 97.9318 467.652 97.9318C469.334 97.9318 470.737 97.4886 471.862 96.6023C472.999 95.7045 473.851 94.5 474.419 92.9886C474.999 91.4659 475.288 89.7727 475.288 87.9091C475.288 86.0682 475.004 84.4091 474.436 82.9318C473.879 81.4432 473.033 80.267 471.896 79.4034C470.771 78.5284 469.357 78.0909 467.652 78.0909C466.016 78.0909 464.641 78.5057 463.527 79.3352C462.413 80.1534 461.572 81.3011 461.004 82.7784C460.436 84.2443 460.152 85.9545 460.152 87.9091ZM522.402 66.0909H526.629V89.2045C526.629 91.5909 526.067 93.7216 524.942 95.5966C523.828 97.4602 522.254 98.9318 520.22 100.011C518.186 101.08 515.8 101.614 513.061 101.614C510.322 101.614 507.936 101.08 505.902 100.011C503.868 98.9318 502.288 97.4602 501.163 95.5966C500.05 93.7216 499.493 91.5909 499.493 89.2045V66.0909H503.72V88.8636C503.72 90.5682 504.095 92.0852 504.845 93.4148C505.595 94.733 506.663 95.7727 508.05 96.5341C509.447 97.2841 511.118 97.6591 513.061 97.6591C515.004 97.6591 516.675 97.2841 518.072 96.5341C519.47 95.7727 520.538 94.733 521.277 93.4148C522.027 92.0852 522.402 90.5682 522.402 88.8636V66.0909ZM534.526 110.818V74.8182H538.412V78.9773H538.889C539.185 78.5227 539.594 77.9432 540.116 77.2386C540.651 76.5227 541.412 75.8864 542.401 75.3295C543.401 74.7614 544.753 74.4773 546.457 74.4773C548.662 74.4773 550.605 75.0284 552.287 76.1307C553.969 77.233 555.281 78.7955 556.224 80.8182C557.168 82.8409 557.639 85.2273 557.639 87.9773C557.639 90.75 557.168 93.1534 556.224 95.1875C555.281 97.2102 553.974 98.7784 552.304 99.892C550.634 100.994 548.707 101.545 546.526 101.545C544.844 101.545 543.497 101.267 542.486 100.71C541.474 100.142 540.696 99.5 540.151 98.7841C539.605 98.0568 539.185 97.4545 538.889 96.9773H538.548V110.818H534.526ZM538.48 87.9091C538.48 89.8864 538.77 91.6307 539.349 93.142C539.929 94.642 540.776 95.8182 541.889 96.6705C543.003 97.5114 544.366 97.9318 545.98 97.9318C547.662 97.9318 549.065 97.4886 550.19 96.6023C551.327 95.7045 552.179 94.5 552.747 92.9886C553.327 91.4659 553.616 89.7727 553.616 87.9091C553.616 86.0682 553.332 84.4091 552.764 82.9318C552.207 81.4432 551.361 80.267 550.224 79.4034C549.099 78.5284 547.685 78.0909 545.98 78.0909C544.344 78.0909 542.969 78.5057 541.855 79.3352C540.741 80.1534 539.901 81.3011 539.332 82.7784C538.764 84.2443 538.48 85.9545 538.48 87.9091ZM571.48 101.614C569.821 101.614 568.315 101.301 566.963 100.676C565.611 100.04 564.537 99.125 563.741 97.9318C562.946 96.7273 562.548 95.2727 562.548 93.5682C562.548 92.0682 562.844 90.8523 563.435 89.9205C564.026 88.9773 564.815 88.2386 565.804 87.7045C566.793 87.1705 567.884 86.7727 569.077 86.5114C570.281 86.2386 571.491 86.0227 572.707 85.8636C574.298 85.6591 575.588 85.5057 576.577 85.4034C577.577 85.2898 578.304 85.1023 578.759 84.8409C579.224 84.5795 579.457 84.125 579.457 83.4773V83.3409C579.457 81.6591 578.997 80.3523 578.077 79.4205C577.168 78.4886 575.787 78.0227 573.935 78.0227C572.014 78.0227 570.509 78.4432 569.418 79.2841C568.327 80.125 567.56 81.0227 567.116 81.9773L563.298 80.6136C563.98 79.0227 564.889 77.7841 566.026 76.8977C567.173 76 568.423 75.375 569.776 75.0227C571.139 74.6591 572.48 74.4773 573.798 74.4773C574.639 74.4773 575.605 74.5795 576.696 74.7841C577.798 74.9773 578.861 75.3807 579.884 75.9943C580.918 76.608 581.776 77.5341 582.457 78.7727C583.139 80.0114 583.48 81.6705 583.48 83.75V101H579.457V97.4545H579.253C578.98 98.0227 578.526 98.6307 577.889 99.2784C577.253 99.9261 576.406 100.477 575.349 100.932C574.293 101.386 573.003 101.614 571.48 101.614ZM572.094 98C573.685 98 575.026 97.6875 576.116 97.0625C577.219 96.4375 578.048 95.6307 578.605 94.642C579.173 93.6534 579.457 92.6136 579.457 91.5227V87.8409C579.287 88.0455 578.912 88.233 578.332 88.4034C577.764 88.5625 577.105 88.7045 576.355 88.8295C575.616 88.9432 574.895 89.0455 574.19 89.1364C573.497 89.2159 572.935 89.2841 572.503 89.3409C571.457 89.4773 570.48 89.6989 569.571 90.0057C568.673 90.3011 567.946 90.75 567.389 91.3523C566.844 91.9432 566.571 92.75 566.571 93.7727C566.571 95.1705 567.088 96.2273 568.122 96.9432C569.168 97.6477 570.491 98 572.094 98ZM594.845 85.25V101H590.822V74.8182H594.709V78.9091H595.05C595.663 77.5795 596.595 76.5114 597.845 75.7045C599.095 74.8864 600.709 74.4773 602.686 74.4773C604.459 74.4773 606.01 74.8409 607.339 75.5682C608.669 76.2841 609.703 77.375 610.442 78.8409C611.18 80.2955 611.55 82.1364 611.55 84.3636V101H607.527V84.6364C607.527 82.5795 606.993 80.9773 605.925 79.8295C604.857 78.6705 603.391 78.0909 601.527 78.0909C600.243 78.0909 599.095 78.3693 598.084 78.9261C597.084 79.483 596.294 80.2955 595.714 81.3636C595.135 82.4318 594.845 83.7273 594.845 85.25ZM628.787 101.545C626.605 101.545 624.679 100.994 623.009 99.892C621.338 98.7784 620.031 97.2102 619.088 95.1875C618.145 93.1534 617.673 90.75 617.673 87.9773C617.673 85.2273 618.145 82.8409 619.088 80.8182C620.031 78.7955 621.344 77.233 623.026 76.1307C624.707 75.0284 626.651 74.4773 628.855 74.4773C630.56 74.4773 631.906 74.7614 632.895 75.3295C633.895 75.8864 634.656 76.5227 635.179 77.2386C635.713 77.9432 636.128 78.5227 636.423 78.9773H636.764V66.0909H640.787V101H636.901V96.9773H636.423C636.128 97.4545 635.707 98.0568 635.162 98.7841C634.616 99.5 633.838 100.142 632.827 100.71C631.815 101.267 630.469 101.545 628.787 101.545ZM629.332 97.9318C630.946 97.9318 632.31 97.5114 633.423 96.6705C634.537 95.8182 635.384 94.642 635.963 93.142C636.543 91.6307 636.832 89.8864 636.832 87.9091C636.832 85.9545 636.548 84.2443 635.98 82.7784C635.412 81.3011 634.571 80.1534 633.457 79.3352C632.344 78.5057 630.969 78.0909 629.332 78.0909C627.628 78.0909 626.207 78.5284 625.071 79.4034C623.946 80.267 623.099 81.4432 622.531 82.9318C621.974 84.4091 621.696 86.0682 621.696 87.9091C621.696 89.7727 621.98 91.4659 622.548 92.9886C623.128 94.5 623.98 95.7045 625.105 96.6023C626.241 97.4886 627.651 97.9318 629.332 97.9318ZM659.69 101.545C657.168 101.545 654.991 100.989 653.162 99.875C651.344 98.75 649.94 97.1818 648.952 95.1705C647.974 93.1477 647.486 90.7955 647.486 88.1136C647.486 85.4318 647.974 83.0682 648.952 81.0227C649.94 78.9659 651.315 77.3636 653.077 76.2159C654.849 75.0568 656.918 74.4773 659.281 74.4773C660.645 74.4773 661.991 74.7045 663.321 75.1591C664.651 75.6136 665.861 76.3523 666.952 77.375C668.043 78.3864 668.912 79.7273 669.56 81.3977C670.207 83.0682 670.531 85.125 670.531 87.5682V89.2727H650.349V85.7955H666.44C666.44 84.3182 666.145 83 665.554 81.8409C664.974 80.6818 664.145 79.767 663.065 79.0966C661.997 78.4261 660.736 78.0909 659.281 78.0909C657.679 78.0909 656.293 78.4886 655.122 79.2841C653.963 80.0682 653.071 81.0909 652.446 82.3523C651.821 83.6136 651.509 84.9659 651.509 86.4091V88.7273C651.509 90.7045 651.849 92.3807 652.531 93.7557C653.224 95.1193 654.185 96.1591 655.412 96.875C656.639 97.5795 658.065 97.9318 659.69 97.9318C660.747 97.9318 661.702 97.7841 662.554 97.4886C663.418 97.1818 664.162 96.7273 664.787 96.125C665.412 95.5114 665.895 94.75 666.236 93.8409L670.122 94.9318C669.713 96.25 669.026 97.4091 668.06 98.4091C667.094 99.3977 665.901 100.17 664.48 100.727C663.06 101.273 661.463 101.545 659.69 101.545Z" fill="black"/>
</svg>
